<svg xmlns="http://www.w3.org/2000/svg" style="display: none;"><symbol id="icon-engine-start" viewBox="0 0 48 48"><title>engine start</title><g class="nc-icon-wrapper"><path d="M24,1A23,23,0,1,0,47,24,23.026,23.026,0,0,0,24,1Zm-1,9a1,1,0,0,1,2,0V22a1,1,0,0,1-2,0Zm1,27a13,13,0,0,1-8.667-22.689,1,1,0,1,1,1.334,1.49,11,11,0,1,0,14.606-.054,1,1,0,1,1,1.322-1.5A13,13,0,0,1,24,37Z" fill="currentColor"/></g></symbol><symbol id="icon-button-power" viewBox="0 0 48 48"><title>button power</title><g class="nc-icon-wrapper"><path data-color="color-2" d="M25,15h-2c-0.552,0-1-0.448-1-1V2c0-0.552,0.448-1,1-1h2c0.552,0,1,0.448,1,1v12 C26,14.552,25.552,15,25,15z"/> <path fill="currentColor" d="M24,47C12.421,47,3,37.579,3,26c0-8.141,4.771-15.619,12.157-19.052l1.686,3.627 C10.863,13.354,7,19.409,7,26c0,9.374,7.626,17,17,17s17-7.626,17-17c0-6.592-3.865-12.647-9.847-15.428l1.686-3.627 C40.227,10.378,45,17.857,45,26C45,37.579,35.579,47,24,47z"/></g></symbol><symbol id="icon-floppy-disk" viewBox="0 0 48 48"><title>floppy disk</title><g class="nc-icon-wrapper" stroke-linecap="square" stroke-linejoin="miter"><polyline data-color="color-2" fill="none" stroke-miterlimit="10" points=" 30,2 30,16 10,16 10,2 "/> <line data-color="color-2" fill="none" stroke-miterlimit="10" x1="24" y1="8" x2="24" y2="10"/> <polyline data-color="color-2" fill="none" stroke-miterlimit="10" points=" 10,41 10,28 38,28 38,41 "/> <polygon fill="none" stroke="currentColor" stroke-miterlimit="10" points="46,46 2,46 2,2 36,2 46,16 "/></g></symbol><symbol id="icon-folder-15" viewBox="0 0 48 48"><title>folder 15</title><g class="nc-icon-wrapper" stroke-linecap="square" stroke-linejoin="miter"><path fill="none" stroke="currentColor" stroke-miterlimit="10" d="M42,45H6 c-2.209,0-4-1.791-4-4V3h16l6,8h22v30C46,43.209,44.209,45,42,45z" transform="translate(0, 0)"/></g></symbol><symbol id="icon-piano" viewBox="0 0 48 48"><title>piano</title><g class="nc-icon-wrapper"><rect x="20" y="4" fill="currentColor" width="7.999" height="2"/> <path fill="currentColor" d="M46,4H36v2h9v38H33V33h-2v11H17V33h-2v11H3V6h9V4H2C1.447,4,1,4.448,1,5v40c0,0.552,0.447,1,1,1h44 c0.553,0,1-0.448,1-1V5C47,4.448,46.553,4,46,4z"/> <path data-color="color-2" d="M20,2h-8c-0.553,0-1,0.448-1,1v26c0,0.552,0.447,1,1,1h8c0.553,0,1-0.448,1-1V3 C21,2.448,20.553,2,20,2z"/> <path data-color="color-2" d="M36,2h-8c-0.553,0-1,0.448-1,1v26c0,0.552,0.447,1,1,1h8c0.553,0,1-0.448,1-1V3 C37,2.448,36.553,2,36,2z"/></g></symbol><symbol id="icon-folder-15-2" viewBox="0 0 48 48"><title>folder 15 2</title><g class="nc-icon-wrapper"><path fill="currentColor" d="M46,10H24.5l-5.7-7.6C18.611,2.148,18.315,2,18,2H2C1.448,2,1,2.448,1,3v39c0,2.209,1.791,4,4,4h38 c2.209,0,4-1.791,4-4V11C47,10.448,46.552,10,46,10z"/></g></symbol><symbol id="icon-floppy-disk-2" viewBox="0 0 48 48"><title>floppy disk 2</title><g class="nc-icon-wrapper"><path fill="currentColor" d="M46.813,15.419l-10-14C36.626,1.156,36.323,1,36,1h-5v12c0,0.553-0.447,1-1,1H10c-0.553,0-1-0.447-1-1V1H2 C1.447,1,1,1.447,1,2v44c0,0.553,0.447,1,1,1h44c0.553,0,1-0.447,1-1V16C47,15.792,46.935,15.588,46.813,15.419z M39,42 c0,0.553-0.447,1-1,1H10c-0.553,0-1-0.447-1-1V28c0-0.553,0.447-1,1-1h28c0.553,0,1,0.447,1,1V42z"/> <path data-color="color-2" d="M32,34H16c-0.553,0-1-0.447-1-1s0.447-1,1-1h16c0.553,0,1,0.447,1,1S32.553,34,32,34z"/> <path data-color="color-2" d="M26,39H16c-0.553,0-1-0.447-1-1s0.447-1,1-1h10c0.553,0,1,0.447,1,1S26.553,39,26,39z"/> <rect data-color="color-2" x="21" y="1" width="6" height="9"/></g></symbol></svg>